<svg xmlns="http://www.w3.org/2000/svg" viewBox="0 0 120 63">
    <g fill="#000" fill-rule="nonzero">
        <path d="M112.844 27.087h.058c.399.007.748.025 1.048.056.375.04.694.126.95.256.27.14.47.34.58.592.098.218.15.481.156.812.001.02.008.477-.007.704-.014.23-.066.47-.15.648a1.156 1.156 0 0 1-.498.549c-.224.12-.52.205-.886.244a11.58 11.58 0 0 1-1.258.057h-7.018v-3.918h7.025zm1.618 4.943.698-.058c.287-.023.569-.054.838-.094.686-.102 1.278-.283 1.753-.528.178-.092.276-.16.479-.302.608-.429.92-1.014.959-1.807.009-.161 0-.281-.01-.418-.03-.493-.15-.913-.353-1.244-.242-.394-.586-.697-1.043-.927-.465-.23-1.045-.4-1.727-.497 0 0-.993-.158-2.474-.155h-11.317v9.416h3.554v-3.323h4.835l5.443 3.323H120l-5.538-3.386zM92.626 32.362h-8.612l4.302-4.968 4.31 4.968zM87.397 26l-8.248 9.53h2.136l1.862-2.152h10.361l1.863 2.151h3.975L91.081 26h-3.684zM73.966 26v4.827c0 .412-.052.788-.143 1.136-.463 1.756-2.117 2.651-4.946 2.654h-.357c-2.85-.003-4.51-.912-4.959-2.697a4.588 4.588 0 0 1-.129-1.093V26h-3.571v4.976c0 1.037.224 1.877.662 2.502.272.384.624.718 1.042.995.254.164.535.31.84.434.31.13.65.24 1.01.335.616.16 1.307.278 2.062.35.958.092 2.044.148 3.22.153a35.864 35.864 0 0 0 3.222-.153c.755-.072 1.444-.19 2.058-.349a7.595 7.595 0 0 0 1.015-.336c.308-.125.585-.27.841-.434.421-.277.77-.611 1.044-.995.435-.623.66-1.465.66-2.502V26h-3.57M52.294 31.094v3.064H46.77c-2.899 0-4.577-.902-5.036-2.678a3.685 3.685 0 0 1-.002-1.7c.45-1.786 2.099-2.662 5.038-2.662h8.651V26h-7.515c-1.577 0-3.007.055-4.248.16-1.22.104-2.268.327-3.112.657-.825.325-1.46.795-1.894 1.4-.419.581-.637 1.363-.657 2.32 0 .025 0 .05.002.076l-.005.144c.01.992.235 1.797.669 2.395.441.61 1.082 1.087 1.905 1.414.846.338 1.894.564 3.114.68a47.58 47.58 0 0 0 4.226.17h8.006v-4.322h-3.618M26.134 27.377l4.268 4.9h-8.53l4.262-4.9zM28.877 26H25.22l-8.187 9.416h2.119l1.842-2.118h10.298l1.845 2.118h3.943L28.877 26zM11.678 26v4.43c0 1.324-.494 2.306-1.468 2.926-.839.532-2.052.8-3.605.8H0v1.26h5.49c1.53 0 2.928-.058 4.153-.172 1.199-.114 2.227-.34 3.057-.678.806-.327 1.438-.805 1.872-1.414.392-.551.612-1.28.649-2.175.004-.079.008-.183.008-.294V26h-3.551"/>
    </g>
</svg>
