<svg
   viewBox="0 0 132.29167 31.343799"
   id="svg1"
   xmlns="http://www.w3.org/2000/svg">
  
    <g
     id="layer1"
     transform="translate(-102.12916,-117.80107)">
    <path
       fill="#005840"
       stroke="none"
       d="m 123.71183,133.4564 3.14579,-8.01346 3.33527,8.01346 z m 15.38124,7.72467 c -0.53533,-0.44335 -1.28959,-1.893 -1.54162,-2.43017 l -8.55617,-20.57088 h -2.48535 l -7.86447,19.62531 c -0.34586,0.88302 -1.77158,3.43828 -2.04569,3.84852 -0.25018,0.37898 -0.62915,1.00996 0.31458,1.00996 h 3.08324 l 2.46328,-6.18486 h 8.9885 l 2.57917,6.18486 h 4.93944 c 0.72297,0 0.82048,-0.91062 0.12508,-1.48274"
       id="path2084"
       style="fill:#000000;stroke-width:1.11901" />
    <path
       fill="#005840"
       stroke="none"
       d="m 196.11827,133.4564 3.14579,-8.01346 3.33341,8.01346 z m 15.37939,7.72467 c -0.53533,-0.44335 -1.28958,-1.893 -1.54161,-2.43017 l -8.55618,-20.57088 h -2.48535 l -7.86446,19.62531 c -0.34586,0.88302 -1.77341,3.43828 -2.04568,3.84852 -0.25204,0.37898 -0.62732,1.00996 0.31456,1.00996 h 3.08325 l 2.46144,-6.18486 h 8.99033 l 2.57734,6.18486 h 4.93943 c 0.72481,0 0.82047,-0.91062 0.12695,-1.48274"
       id="path2086"
       style="fill:#000000;stroke-width:1.11901" />
    <path
       fill="#005840"
       stroke="none"
       d="m 107.79158,121.44171 v 16.91183 c 0,7.31808 -4.90817,9.84392 -5.66242,10.79133 h 5.53548 c 3.10347,-2.09719 5.03326,-6.61351 5.03326,-9.40425 v -21.58083 h -4.90632 c -0.56662,0 -0.88119,0.37896 -0.62916,1.00996 0.25019,0.631 0.56477,1.19945 0.62916,2.27196"
       id="path2088"
       style="fill:#000000;stroke-width:1.11901" />
    <path
       fill="#005840"
       stroke="none"
       d="m 157.11052,130.92506 h 4.90816 v 10.47492 c -1.44781,0.94742 -3.46221,1.83045 -7.80377,1.83045 -4.33971,0 -12.96026,-2.08248 -12.96026,-12.99891 0,-10.91644 10.76006,-12.43045 13.14976,-12.43045 2.38968,0 5.53547,0.5666 7.2353,1.26198 v 3.59651 c -1.32086,-0.44152 -3.27089,-1.893 -6.92074,-1.893 -4.15206,0 -8.24158,3.40701 -8.30413,9.84392 -0.0643,6.43508 4.46664,11.54743 10.69568,9.33803 v -6.43507 c -0.0312,-0.69355 -0.12697,-1.19945 -0.44152,-1.64097 -0.23364,-0.32929 -0.37713,-0.94741 0.44152,-0.94741"
       id="path2090"
       style="fill:#000000;stroke-width:1.11901" />
    <path
       fill="#005840"
       stroke="none"
       d="m 186.4767,135.21511 v -13.66119 c 0.0312,-0.69353 0.5979,-1.98681 0.91246,-2.42832 0.23548,-0.32928 0.37713,-0.9474 -0.43967,-0.9474 h -3.71239 c -0.8168,0 -0.67331,0.61812 -0.43967,0.9474 0.31456,0.44151 0.88119,1.73479 0.91246,2.42832 v 11.95767 c 0,3.59835 -2.58102,6.81589 -6.29157,6.81589 -3.7124,0 -5.28529,-3.84853 -5.28529,-5.86846 V 118.1782 h -4.90634 c -0.81862,0 -0.67697,0.61812 -0.44152,0.9474 0.31459,0.44151 0.41026,0.94558 0.44152,1.63913 v 14.19835 c 0,4.29188 4.71684,8.20296 10.19163,8.20296 5.47293,0 9.05838,-4.79595 9.05838,-7.95093"
       id="path2092"
       style="fill:#000000;stroke-width:1.11901" />
    <path
       fill="#005840"
       stroke="none"
       d="m 221.31399,138.71962 c 0,0.47279 0.37713,2.33451 0.62915,2.93423 0.25204,0.59973 -0.0939,1.00996 -0.62915,1.00996 h -4.90631 v -21.89725 c -0.0312,-0.69355 -0.12697,-1.19945 -0.44152,-1.64096 -0.23364,-0.32928 -0.37713,-0.94558 0.44152,-0.94558 h 7.17091 c 1.82492,0 8.05395,-0.18947 8.11649,6.81405 0.0643,1.89299 0,3.59833 -2.89375,5.55386 -0.56662,0.37897 -0.88118,0.88303 -0.43967,1.64096 0.43967,0.7561 3.86875,6.84531 3.86875,6.84531 0.56478,0.88487 1.52139,2.20388 1.8562,2.46145 0.40842,0.31641 0.53535,1.16816 -0.15821,1.16816 h -5.06452 l -6.00827,-10.91642 c -0.37713,-0.69356 -0.37713,-1.32639 0.50406,-1.57842 1.10931,-0.31825 3.49164,-0.18949 3.49164,-5.30001 0,-4.76468 -3.27272,-4.19623 -4.34155,-4.19623 -1.06883,0 -1.19577,0.78921 -1.19577,1.92427 z m 0,0"
       id="path2094"
       style="fill:#000000;stroke-width:1.11901" />
  </g>
</svg>
