<svg
   viewBox="0 0 180 50"
   id="svg5"
   xmlns="http://www.w3.org/2000/svg"><g
     id="layer1"><g
       id="g604"
       transform="translate(-17.693357,-149.38369)"
       style="fill:#153a85;fill-opacity:1;stroke:none"><path
         style="fill:#153a85;stroke-width:0.264583;fill-opacity:1;stroke:none"
         d="m 72.539599,176.95513 -0.06915,-10.64948 -2.447396,-0.0761 -2.447396,-0.0761 v -1.84216 -1.84215 h 11.244792 11.244792 v 1.84215 1.84216 l -2.447396,0.0761 -2.447396,0.0761 -0.06915,10.64948 -0.06915,10.64948 h -6.211705 -6.211705 z m 21.229813,-1.78594 v -12.43542 h 9.260418 9.26042 v 1.98438 1.98437 h -2.91042 -2.91041 v 3.175 3.175 h 2.91041 2.91042 v 1.98438 1.98437 h -2.91042 -2.91041 v 3.30729 3.3073 h 2.91041 2.91042 v 1.98437 1.98438 h -9.26042 -9.260418 z m 24.341668,10.4673 v -2.00063 h 2.22732 c 1.22503,0 2.42005,-0.074 2.65562,-0.16436 0.64135,-0.24611 1.27102,-1.64319 1.0813,-2.39911 -0.0903,-0.35992 -1.41038,-2.2063 -2.93343,-4.10307 -2.16499,-2.69622 -2.86236,-3.76916 -3.1962,-4.91755 -1.1127,-3.82754 1.04673,-7.52996 5.12683,-8.79018 1.50469,-0.46475 2.46171,-0.52782 8.00931,-0.52782 h 6.30041 l 0.0879,1.87526 c 0.0483,1.03139 0.0383,1.92436 -0.0224,1.98437 -0.0606,0.06 -1.11026,0.10912 -2.3325,0.10912 -2.55042,0 -3.08016,0.20249 -3.47225,1.32723 -0.40265,1.15505 -0.12858,1.68514 2.69964,5.22152 2.95092,3.68981 3.36219,4.43544 3.54234,6.42212 0.28488,3.14171 -1.51378,5.93188 -4.62947,7.18149 -1.42268,0.57059 -1.94768,0.61442 -8.33138,0.6956 l -6.81302,0.0866 z m 24.60625,-10.4673 v -12.43542 h 6.35 6.35 v 10.45104 10.45105 h 2.51354 2.51355 v 1.98437 1.98438 h -8.86355 -8.86354 z m 20.10834,12.33598 c 0,-0.10411 4.91819,-23.13743 5.1632,-24.18078 l 0.1409,-0.6 6.38728,0.0708 6.38729,0.0708 2.59103,12.03855 c 1.42507,6.62119 2.59612,12.18948 2.60233,12.37397 0.009,0.26381 -1.35507,0.32031 -6.38733,0.26458 l -6.39863,-0.0709 -0.52032,-1.91822 -0.52032,-1.91823 h -2.32364 c -2.5987,0 -2.34189,-0.21586 -2.91173,2.44739 l -0.32552,1.52136 h -1.94227 c -1.06825,0 -1.94227,-0.0447 -1.94227,-0.0994 z m 8.46903,-8.0365 c 0.001,-0.10914 -0.31902,-1.56766 -0.71181,-3.24115 l -0.71418,-3.04271 -0.58419,2.47821 c -0.32131,1.36301 -0.65286,2.82152 -0.73679,3.24114 l -0.15258,0.76295 h 1.44859 c 0.79673,0 1.44966,-0.0893 1.45096,-0.19844 z"
         id="path248" /><path
         style="fill:#153a85;stroke-width:1;fill-opacity:1;stroke:none"
         id="path356"
         d="m 49.428095,150.61401 -5.343455,-1.79248 -1.1194,5.52381 -1.119399,-5.52381 -5.343455,1.79248 4.224056,-3.73133 -4.224056,-3.73134 5.343455,1.79248 1.1194,-5.52381 1.119399,5.52381 5.343455,-1.79248 -4.224056,3.73134 z"
         transform="matrix(0.48251902,0,0,0.48251902,23.411893,89.910323)" /><path
         style="fill:#153a85;stroke-width:0.264583;fill-opacity:1;stroke:none"
         d="m 39.38393,192.17526 c -3.333593,-0.86016 -5.65745,-2.20148 -8.224389,-4.74708 -2.4348,-2.41457 -3.550694,-4.131 -4.679923,-7.1985 -0.654882,-1.77896 -0.711609,-2.24943 -0.711609,-5.90181 0,-3.65237 0.05673,-4.12284 0.711609,-5.9018 1.004335,-2.72824 2.141624,-4.60178 4.010361,-6.60657 2.081435,-2.23297 4.79828,-4.00175 7.597175,-4.94608 2.866899,-0.96728 7.328366,-1.21549 10.112444,-0.56259 6.683408,1.56734 12.007743,6.71786 13.838591,13.38683 0.639323,2.32878 0.641215,6.91975 0.0038,9.26042 -1.777802,6.52845 -6.879098,11.59584 -13.335857,13.2472 -2.654889,0.679 -6.623858,0.66622 -9.322212,-0.03 z m 10.186459,-1.61688 c 1.018646,-0.3632 2.43662,-1.02615 3.151056,-1.47322 l 1.298969,-0.81285 -1.068866,-0.5453 c -1.679005,-0.85656 -3.504304,-2.87088 -4.468238,-4.93094 -0.635116,-1.35733 -1.013905,-2.77452 -1.41478,-5.2932 -1.409438,-8.85544 -1.527275,-9.29856 -2.574474,-9.68105 -0.412047,-0.1505 -0.767369,-0.0626 -1.235351,0.30548 -0.758673,0.59677 -1.001441,1.54654 -1.787782,6.99432 -0.294066,2.03729 -0.714115,4.41004 -0.933443,5.27278 -0.797523,3.13709 -2.402854,5.45507 -4.877885,7.04329 -1.570048,1.0075 -1.503368,1.16023 1.012178,2.31838 2.99227,1.37764 4.340644,1.64281 7.871533,1.54797 2.565798,-0.0689 3.530368,-0.21199 5.027083,-0.74566 z m -14.920042,-5.93033 c 1.620982,-0.52648 3.278258,-1.98668 4.103774,-3.61576 0.799731,-1.57819 1.208582,-3.43767 2.093724,-9.52239 0.753035,-5.17658 1.272903,-6.6148 2.55222,-7.06077 1.121348,-0.39091 2.067756,0.0997 2.703257,1.40124 0.303054,0.62069 0.796191,3.03007 1.24553,6.08542 0.409115,2.78185 0.942458,5.87029 1.185205,6.8632 0.862127,3.52635 3.137142,5.64169 6.7648,6.28999 l 1.851403,0.33086 0.629905,-0.77348 c 0.977503,-1.20032 2.131655,-3.50126 2.776841,-5.53599 0.822773,-2.59478 0.820349,-6.89689 -0.0054,-9.525 -0.967142,-3.07822 -2.057746,-4.84451 -4.494202,-7.27859 -3.28146,-3.27824 -6.436813,-4.69665 -11.009286,-4.94893 -5.160572,-0.28474 -9.48611,1.35382 -13.07255,4.95199 -5.862543,5.88174 -6.69256,14.56585 -2.073741,21.69665 l 0.883116,1.3634 1.322916,-0.16287 c 0.727605,-0.0896 1.871711,-0.34111 2.542459,-0.55897 z"
         id="path572" /></g></g></svg>
